<svg xmlns="http://www.w3.org/2000/svg" width="805" height="300"><rect width="805" height="300" x="0" y="0" fill="#FFFFFF" id="background"/><g id="viz"><clipPath id="serieClipPath"><rect x="-50" y="-10" width="805" height="300"/></clipPath><g transform="translate(0,0)"><g transform="translate(50,10)" clip-path="url(#serieClipPath)"><g id="axis"><g transform="translate(0,270)" fill="none" font-size="10" font-family="sans-serif" text-anchor="middle"><path class="domain" stroke="currentColor" d="M0.5,6V0.5H740.5V6"/><g class="tick" opacity="1" transform="translate(0.5,0)"><line stroke="currentColor" y2="6"/><text fill="currentColor" y="9" dy="0.71em">4</text></g><g class="tick" opacity="1" transform="translate(28.961538461538463,0)"><line stroke="currentColor" y2="6"/><text fill="currentColor" y="9" dy="0.71em">5</text></g><g class="tick" opacity="1" transform="translate(57.42307692307693,0)"><line stroke="currentColor" y2="6"/><text fill="currentColor" y="9" dy="0.71em">6</text></g><g class="tick" opacity="1" transform="translate(85.88461538461539,0)"><line stroke="currentColor" y2="6"/><text fill="currentColor" y="9" dy="0.71em">7</text></g><g class="tick" opacity="1" transform="translate(114.34615384615385,0)"><line stroke="currentColor" y2="6"/><text fill="currentColor" y="9" dy="0.71em">8</text></g><g class="tick" opacity="1" transform="translate(142.80769230769232,0)"><line stroke="currentColor" y2="6"/><text fill="currentColor" y="9" dy="0.71em">9</text></g><g class="tick" opacity="1" transform="translate(171.26923076923077,0)"><line stroke="currentColor" y2="6"/><text fill="currentColor" y="9" dy="0.71em">10</text></g><g class="tick" opacity="1" transform="translate(199.73076923076923,0)"><line stroke="currentColor" y2="6"/><text fill="currentColor" y="9" dy="0.71em">11</text></g><g class="tick" opacity="1" transform="translate(228.1923076923077,0)"><line stroke="currentColor" y2="6"/><text fill="currentColor" y="9" dy="0.71em">12</text></g><g class="tick" opacity="1" transform="translate(256.65384615384613,0)"><line stroke="currentColor" y2="6"/><text fill="currentColor" y="9" dy="0.71em">13</text></g><g class="tick" opacity="1" transform="translate(285.11538461538464,0)"><line stroke="currentColor" y2="6"/><text fill="currentColor" y="9" dy="0.71em">14</text></g><g class="tick" opacity="1" transform="translate(313.5769230769231,0)"><line stroke="currentColor" y2="6"/><text fill="currentColor" y="9" dy="0.71em">15</text></g><g class="tick" opacity="1" transform="translate(342.03846153846155,0)"><line stroke="currentColor" y2="6"/><text fill="currentColor" y="9" dy="0.71em">16</text></g><g class="tick" opacity="1" transform="translate(370.5,0)"><line stroke="currentColor" y2="6"/><text fill="currentColor" y="9" dy="0.71em">17</text></g><g class="tick" opacity="1" transform="translate(398.96153846153845,0)"><line stroke="currentColor" y2="6"/><text fill="currentColor" y="9" dy="0.71em">18</text></g><g class="tick" opacity="1" transform="translate(427.4230769230769,0)"><line stroke="currentColor" y2="6"/><text fill="currentColor" y="9" dy="0.71em">19</text></g><g class="tick" opacity="1" transform="translate(455.8846153846154,0)"><line stroke="currentColor" y2="6"/><text fill="currentColor" y="9" dy="0.71em">20</text></g><g class="tick" opacity="1" transform="translate(484.34615384615387,0)"><line stroke="currentColor" y2="6"/><text fill="currentColor" y="9" dy="0.71em">21</text></g><g class="tick" opacity="1" transform="translate(512.8076923076923,0)"><line stroke="currentColor" y2="6"/><text fill="currentColor" y="9" dy="0.71em">22</text></g><g class="tick" opacity="1" transform="translate(541.2692307692307,0)"><line stroke="currentColor" y2="6"/><text fill="currentColor" y="9" dy="0.71em">23</text></g><g class="tick" opacity="1" transform="translate(569.7307692307693,0)"><line stroke="currentColor" y2="6"/><text fill="currentColor" y="9" dy="0.71em">24</text></g><g class="tick" opacity="1" transform="translate(598.1923076923077,0)"><line stroke="currentColor" y2="6"/><text fill="currentColor" y="9" dy="0.71em">25</text></g><g class="tick" opacity="1" transform="translate(626.6538461538462,0)"><line stroke="currentColor" y2="6"/><text fill="currentColor" y="9" dy="0.71em">26</text></g><g class="tick" opacity="1" transform="translate(655.1153846153846,0)"><line stroke="currentColor" y2="6"/><text fill="currentColor" y="9" dy="0.71em">27</text></g><g class="tick" opacity="1" transform="translate(683.5769230769231,0)"><line stroke="currentColor" y2="6"/><text fill="currentColor" y="9" dy="0.71em">28</text></g><g class="tick" opacity="1" transform="translate(712.0384615384615,0)"><line stroke="currentColor" y2="6"/><text fill="currentColor" y="9" dy="0.71em">29</text></g><g class="tick" opacity="1" transform="translate(740.5,0)"><line stroke="currentColor" y2="6"/><text fill="currentColor" y="9" dy="0.71em">30</text></g><text x="740" dy="-5" text-anchor="end" style="font-family: Arial, sans-serif; font-size: 12px; fill: rgb(123, 123, 123); font-weight: bold;">Size in cm</text></g><g transform="translate(0,0)" fill="none" font-size="10" font-family="sans-serif" text-anchor="end"><path class="domain" stroke="currentColor" d="M0.5,270.5V0.5"/><g class="tick" opacity="1" transform="translate(0,270.5)"><line stroke="currentColor" x2="-6"/><text fill="currentColor" x="-9" dy="0.32em">0</text></g><g class="tick" opacity="1" transform="translate(0,236.75)"><line stroke="currentColor" x2="-6"/><text fill="currentColor" x="-9" dy="0.32em">5</text></g><g class="tick" opacity="1" transform="translate(0,203)"><line stroke="currentColor" x2="-6"/><text fill="currentColor" x="-9" dy="0.32em">10</text></g><g class="tick" opacity="1" transform="translate(0,169.25)"><line stroke="currentColor" x2="-6"/><text fill="currentColor" x="-9" dy="0.32em">15</text></g><g class="tick" opacity="1" transform="translate(0,135.5)"><line stroke="currentColor" x2="-6"/><text fill="currentColor" x="-9" dy="0.32em">20</text></g><g class="tick" opacity="1" transform="translate(0,101.75)"><line stroke="currentColor" x2="-6"/><text fill="currentColor" x="-9" dy="0.32em">25</text></g><g class="tick" opacity="1" transform="translate(0,68)"><line stroke="currentColor" x2="-6"/><text fill="currentColor" x="-9" dy="0.32em">30</text></g><g class="tick" opacity="1" transform="translate(0,34.25)"><line stroke="currentColor" x2="-6"/><text fill="currentColor" x="-9" dy="0.32em">35</text></g><g class="tick" opacity="1" transform="translate(0,0.5)"><line stroke="currentColor" x2="-6"/><text fill="currentColor" x="-9" dy="0.32em">40</text></g><text x="4" text-anchor="start" dominant-baseline="hanging" style="font-family: Arial, sans-serif; font-size: 12px; fill: rgb(123, 123, 123); font-weight: bold;">How many to make a 30 cm pizza</text></g></g><g id="viz"><g><path d="M28.461538461538463,26.999999999999993C29.410256410256405,30.183917911079707,30.358974358974343,33.367835822159414,31.3076923076923,36.43598615916936C32.256410256410255,39.50413649617931,33.20512820512821,42.4565192591195,34.15384615384616,45.332840236686074C35.10256410256411,48.209161214252646,36.051282051282044,51.00942040644561,37,53.73086507653925C37.948717948717956,56.4523097466329,38.89743589743591,59.0949398946272,39.84615384615386,61.66666666666664C40.79487179487181,64.23839343870608,41.743589743589766,66.73921683479061,42.69230769230769,69.17355371900813C43.64102564102562,71.60789060322564,44.58974358974357,73.97574097557609,45.53846153846153,76.28188775510161C46.487179487179496,78.58803453462713,47.435897435897445,80.83247772132773,48.38461538461539,83.0193905817171C49.33333333333333,85.20630344210647,50.28205128205126,87.3356859761846,51.230769230769226,89.41141498216409C52.17948717948719,91.48714398814357,53.128205128205146,93.50921946602433,54.07692307692309,95.48118356793998C55.02564102564103,97.45314766985562,55.97435897435899,99.37500039580617,56.92307692307693,101.25C57.87179487179486,103.12499960419383,58.8205128205128,104.95314608663092,59.76923076923076,106.7374361730715C60.717948717948715,108.52172625951208,61.666666666666686,110.26215994995627,62.61538461538462,111.961498439126C63.564102564102555,113.66083692829574,64.5128205128205,115.31908021619103,65.46153846153845,116.93877551020373C66.41025641025641,118.55847080421643,67.35897435897435,120.13961810434654,68.30769230769232,121.6845703125C69.25641025641029,123.22952252065346,70.20512820512822,124.73827963683013,71.15384615384616,126.21301775147924C72.1025641025641,127.68775586612836,73.05128205128203,129.12847497925,74,130.53719008264454C74.94871794871797,131.94590518603908,75.89743589743591,133.32261627970655,76.84615384615385,134.66919135664935C77.7948717948718,136.01576643359215,78.74358974358974,137.3322054938104,79.6923076923077,138.6202422145329C80.64102564102565,139.90827893525542,81.5897435897436,141.16791331648218,82.53846153846155,142.400756143667C83.48717948717949,143.6335989708518,84.43589743589743,144.8396502439946,85.38461538461539,146.0204081632654C86.33333333333334,147.20116608253616,87.28205128205126,148.35663064793485,88.23076923076923,149.48819678635203C89.1794871794872,150.61976292476922,90.12820512820514,151.72743063620484,91.07692307692308,152.81250000000009C92.02564102564102,153.89756936379533,92.97435897435895,154.9600403799502,93.92307692307692,156.00112591480539C94.87179487179489,157.04221144966058,95.8205128205128,158.061911503216,96.76923076923077,159.0613586559533C97.71794871794874,160.06080580869062,98.66666666666667,161.04000006060977,99.61538461538461,162C100.56410256410255,162.95999993939023,101.51282051282048,163.9008055662516,102.46153846153845,164.8234072022157C103.41025641025642,165.7460088381798,104.35897435897436,166.65040648324663,105.3076923076923,167.537527407657C106.25641025641025,168.42464833206736,107.20512820512816,169.29449253582135,108.15384615384615,170.147928994083C109.10256410256413,171.00136545234466,110.05128205128209,171.83839416511393,111.00000000000001,172.65983015542363C111.94871794871794,173.48126614573334,112.89743589743588,174.28710941358347,113.84615384615385,175.078125C114.79487179487182,175.86914058641653,115.74358974358974,176.64532849139934,116.6923076923077,177.40740740740762C117.64102564102565,178.1694863234159,118.58974358974356,178.9174562504497,119.53846153846152,179.6519928613923C120.48717948717947,180.3865294723349,121.43589743589743,181.10763276718617,122.3846153846154,181.8159384526056C123.33333333333337,182.524244138025,124.28205128205128,183.21975221401237,125.23076923076924,183.90306122449C126.1794871794872,184.5863702349676,127.12820512820511,185.25748017993538,128.07692307692307,185.91695501730098C129.02564102564102,186.57642985466657,129.97435897435898,187.22426958443006,130.9230769230769,187.86100594916135C131.87179487179483,188.49774231389264,132.8205128205128,189.12337531359162,133.76923076923075,189.73840665873936C134.7179487179487,190.3534380038871,135.66666666666666,190.95786769448364,136.61538461538464,191.55216942148746C137.56410256410263,192.1464711484913,138.51282051282055,192.73064491190235,139.46153846153848,193.30513824012098C140.4102564102564,193.87963156833962,141.35897435897434,194.44444446136566,142.30769230769232,195.00000000000009C143.2564102564103,195.5555555386345,144.20512820512823,196.10185372287728,145.15384615384616,196.63929477116278C146.1025641025641,197.17673581944828,147.05128205128204,197.70531973177634,148,198.22542533081258C148.94871794871796,198.74553092984883,149.89743589743588,199.2571582155933,150.84615384615387,199.76066597294508C151.79487179487185,200.26417373029685,152.74358974358975,200.75956195925596,153.6923076923077,201.24717066545918C154.64102564102566,201.7347793716624,155.58974358974362,202.21460855510978,156.53846153846155,202.68698060941827C157.48717948717947,203.15935266372676,158.43589743589743,203.62426758889637,159.3846153846154,204.08203124999994C160.33333333333334,204.5397949111035,161.28205128205127,204.99040730814107,162.2307692307692,205.43415878414282C163.17948717948713,205.87791026014457,164.12820512820514,206.3148008151106,165.0769230769231,206.7451062057476C166.02564102564105,207.17541159638458,166.97435897435898,207.59913182269239,167.92307692307693,208.01652892561984C168.8717948717949,208.4339260285473,169.82051282051282,208.8450000080946,170.76923076923077,209.25C171.71794871794873,209.6549999919054,172.6666666666667,210.05392599616897,173.6153846153846,210.44701499852954C174.5641025641025,210.8401040008901,175.51282051282047,211.2273560013478,176.46153846153845,211.60899653979237C177.41025641025644,211.99063707823694,178.35897435897436,212.36666615466828,179.30769230769232,212.7372985201244C180.25641025641028,213.10793088558052,181.20512820512818,213.47316654006136,182.15384615384616,213.83321005917153C183.10256410256414,214.1932535782817,184.05128205128207,214.54810496202123,185,214.89795918367346C185.94871794871793,215.2478134053257,186.89743589743588,215.5926704648906,187.84615384615384,215.93271626913491C188.7948717948718,216.27276207337923,189.74358974358972,216.60799662230286,190.69230769230768,216.93859725740234C191.64102564102564,217.2691978925018,192.5897435897436,217.595164613777,193.53846153846155,217.91666666666666C194.4871794871795,218.2381687195563,195.43589743589743,218.5552061040603,196.3846153846154,218.8679404090565C197.33333333333334,219.1806747140527,198.28205128205127,219.48910593954128,199.23076923076923,219.79338842975207C200.17948717948718,220.09767091996287,201.12820512820508,220.39780467489604,202.07692307692307,220.6939371804236C203.02564102564105,220.99006968595117,203.97435897435898,221.2822009420731,204.9230769230769,221.57047193877546C205.87179487179483,221.8587429354778,206.82051282051276,222.1431536727606,207.76923076923077,222.4238389850419C208.7179487179488,222.7045242973232,209.6666666666667,222.98148418460295,210.6153846153846,223.25484764542935C211.5641025641025,223.52821110625575,212.51282051282047,223.79797814062883,213.46153846153845,224.0642722117202C214.41025641025644,224.3305662828116,215.35897435897436,224.5933873906214,216.3076923076923,224.852853745541C217.25641025641022,225.11232010046064,218.20512820512812,225.36843170249023,219.1538461538461,225.6213017751479C220.1025641025641,225.8741718478056,221.05128205128207,226.12380039109155,222.00000000000003,226.37029589198508C222.94871794871798,226.6167913928786,223.89743589743588,226.86015385137972,224.84615384615387,227.10048725372496C225.79487179487185,227.3408206560702,226.74358974358978,227.5781250022595,227.6923076923077,227.8125C228.64102564102564,228.0468749977405,229.58974358974362,228.27832064703216,230.53846153846155,228.50693258657193C231.48717948717947,228.7355445261117,232.43589743589743,228.9613227558995,233.3846153846154,229.18435904326788C234.33333333333334,229.40739533063626,235.28205128205124,229.6276896755852,236.23076923076925,229.8453301606187C237.17948717948727,230.06297064565217,238.1282051282052,230.2779572707701,239.0769230769231,230.49037460978147C240.025641025641,230.70279194879285,240.97435897435898,230.91264000169787,241.92307692307693,231.12C242.8717948717949,231.32735999830214,243.8205128205128,231.53223194200115,244.76923076923077,231.73469387755102C245.71794871794876,231.9371558131009,246.66666666666666,232.13720774050182,247.61538461538458,232.33492466984936C248.5641025641025,232.5326415991969,249.51282051282047,232.72802353049104,250.46153846153848,232.921142578125C251.4102564102565,233.11426162575896,252.35897435897442,233.30511778973283,253.30769230769232,233.49378042184964C254.25641025641022,233.68244305396644,255.20512820512818,233.8689121542262,256.15384615384613,234.0532544378698C257.1025641025641,234.23759672151343,258.05128205128204,234.41981218854093,259,234.59996503700248C259.94871794871796,234.78011788546402,260.8974358974359,234.9582081153594,261.8461538461538,235.13429752066114C262.7948717948717,235.31038692596286,263.74358974358967,235.4844755066708,264.6923076923077,235.65662275990726C265.6410256410257,235.82877001314372,266.58974358974365,235.99897593890847,267.53846153846155,236.16729783916242C268.48717948717945,236.33561973941636,269.43589743589735,236.5020576141595,270.38461538461536,236.66666666666666C271.33333333333337,236.83127571917382,272.2820512820514,236.99405594944488,273.2307692307692,237.1550605536332C274.17948717948707,237.31606515782153,275.128205128205,237.4752941359271,276.07692307692304,237.6327987639192C277.02564102564105,237.7903033919113,277.974358974359,237.94608366979003,278.92307692307696,238.1001890359168C279.8717948717949,238.25429440204357,280.82051282051276,238.40672485641824,281.7692307692308,238.5575280782568C282.7179487179488,238.70833130009538,283.6666666666667,238.8575072893978,284.61538461538464,239.0051020408163C285.5641025641026,239.1526967922348,286.51282051282044,239.2987103057692,287.46153846153845,239.44318696242647C288.41025641025647,239.58766361908374,289.35897435897436,239.73060341886372,290.3076923076923,239.872049196588C291.2564102564103,240.01349497431227,292.20512820512823,240.15344672998071,293.1538461538462,240.29194581642136C294.10256410256414,240.430444902862,295.05128205128204,240.56749132007505,296,240.70312499999997C296.94871794871796,240.8387586799249,297.89743589743586,240.97297962256152,298.84615384615387,241.10582639714625C299.7948717948719,241.23867317173097,300.74358974358984,241.3701457782636,301.6923076923077,241.50028147870145C302.6410256410255,241.6304171791393,303.5897435897435,241.75921597348238,304.53846153846155,241.88671386922118C305.4871794871796,242.01421176495998,306.4358974358975,242.14040876209447,307.3846153846154,242.26533966398827C308.3333333333333,242.39027056588208,309.28205128205127,242.51393537253526,310.2307692307692,242.63636773118327C311.1794871794872,242.75880008983128,312.12820512820514,242.88000000047396,313.0769230769231,243C314.02564102564105,243.11999999952604,314.97435897435895,243.2388000879355,315.9230769230769,243.3564317354502C316.87179487179486,243.4740633829649,317.8205128205128,243.5905265895849,318.7692307692308,243.705851800554C319.71794871794873,243.8211770115231,320.66666666666663,243.93536422684133,321.61538461538464,244.0484429065744C322.56410256410265,244.16152158630746,323.5128205128205,244.2734917304553,324.46153846153845,244.38438185191433C325.4102564102564,244.49527197337335,326.35897435897436,244.60508207214335,327.3076923076923,244.71383975026012C328.2564102564103,244.8225974283769,329.2051282051283,244.93030268584033,330.15384615384613,245.0369822485207C331.102564102564,245.14366181120107,332.05128205128193,245.24931567909834,332.99999999999994,245.35396973508054C333.94871794871796,245.45862379106273,334.89743589743586,245.56227803513,335.84615384615387,245.664957538856C336.7948717948719,245.76763704258198,337.74358974358984,245.86934180596683,338.69230769230774,245.9700961196155C339.64102564102564,246.07085043326418,340.5897435897436,246.1706542971766,341.53846153846155,246.26953125C342.4871794871795,246.3684082028234,343.43589743589746,246.46635824455754,344.3846153846154,246.56340418965317C345.33333333333337,246.6604501347488,346.2820512820513,246.756591983206,347.2307692307692,246.85185185185188C348.1794871794871,246.94711172049776,349.12820512820514,247.04148960933227,350.0769230769231,247.13500696300198C351.02564102564105,247.2285243166717,351.97435897435895,247.32118113517637,352.9230769230769,247.412998215348C353.87179487179486,247.50481529551965,354.8205128205128,247.59579263735816,355.7692307692308,247.68595041322317C356.71794871794873,247.77610818908818,357.66666666666674,247.8654463989795,358.61538461538464,247.9539846131514C359.56410256410254,248.0425228273233,360.51282051282044,248.1302610457756,361.46153846153845,248.2172182580946C362.41025641025647,248.30417547041358,363.3589743589744,248.39035167659927,364.3076923076923,248.47576530612247C365.2564102564102,248.56117893564567,366.2051282051281,248.64582998850642,367.15384615384613,248.72973635376914C368.10256410256414,248.81364271903186,369.05128205128204,248.89680439669644,370,248.97923875432528C370.94871794871796,249.06167311195412,371.897435897436,249.14338014954708,372.8461538461539,249.22437673130196C373.7948717948718,249.30537331305683,374.7435897435898,249.38565943897345,375.6923076923077,249.46525148729046C376.6410256410256,249.54484353560747,377.5897435897436,249.62374150632493,378.5384615384616,249.70196130843C379.4871794871796,249.78018111053504,380.4358974358974,249.85772274402763,381.38461538461536,249.93460166468486C382.3333333333333,250.0114805853421,383.28205128205127,250.087696793164,384.2307692307693,250.16326530612244C385.1794871794873,250.23883381908087,386.1282051282052,250.31375463717583,387.0769230769231,250.3880423553719C388.025641025641,250.46233007356798,388.97435897435895,250.53598469186514,389.92307692307696,250.6090203964378C390.871794871795,250.6820561010105,391.8205128205128,250.75447289185877,392.7692307692308,250.82628456003027C393.71794871794873,250.89809622820178,394.6666666666667,250.9693027736963,395.6153846153846,251.03991760556784C396.5641025641025,251.11053243743936,397.51282051282044,251.18055555568785,398.46153846153845,251.24999999999997C399.41025641025647,251.3194444443121,400.35897435897436,251.38831021468795,401.3076923076924,251.45660999358992C402.2564102564104,251.5249097724919,403.2051282051282,251.59264355991965,404.15384615384613,251.65982369279072C405.1025641025641,251.7270038256618,406.05128205128216,251.79363030397585,407.00000000000006,251.85971513034127C407.94871794871796,251.9257999567067,408.89743589743586,251.99134313112347,409.8461538461538,252.05635633270325C410.79487179487177,252.12136953428302,411.7435897435898,252.1858527630255,412.6923076923077,252.2498173849525C413.6410256410256,252.3137820068795,414.5897435897435,252.37722802199093,415.53846153846155,252.4401664932362C416.4871794871796,252.50310496448148,417.43589743589735,252.56553589186055,418.38461538461536,252.62747004489694C419.33333333333337,252.68940419793333,420.28205128205127,252.75084157662687,421.2307692307692,252.8117926663649C422.1794871794872,252.87274375610295,423.1282051282052,252.93320855688535,424.07692307692304,252.99319727891157C425.0256410256409,253.05318600093779,425.9743589743588,253.1126986442078,426.9230769230769,253.17174515235456C427.87179487179503,253.23079166050132,428.82051282051293,253.28937203352484,429.76923076923083,253.34749595679943C430.71794871794873,253.40561988007403,431.66666666666663,253.4632873535998,432.6153846153846,253.5205078125C433.56410256410254,253.5777282714002,434.51282051282044,253.6345017156747,435.46153846153845,253.6908373379151C436.41025641025647,253.7471729601555,437.35897435897425,253.80307076036158,438.3076923076922,253.85853969603573C439.25641025641016,253.9140086317099,440.2051282051281,253.96904870285206,441.15384615384613,254.02366863905328C442.10256410256414,254.0782885752545,443.05128205128216,254.13248837651471,444.00000000000006,254.18627655143692C444.94871794871796,254.24006472635912,445.8974358974359,254.29344127494343,446.8461538461538,254.34641449148396C447.7948717948717,254.39938770802448,448.7435897435898,254.45195759252135,449.69230769230774,254.50413223140498C450.6410256410257,254.5563068702886,451.58974358974353,254.6080862635589,452.5384615384615,254.6594782960026C453.48717948717945,254.71087032844628,454.4358974358975,254.76187500006327,455.3846153846154,254.8125C456.3333333333333,254.86312499993673,457.28205128205127,254.9133703281931,458.2307692307692,254.96324348407214C459.1794871794872,255.01311663995116,460.12820512820514,255.06261762345252,461.0769230769231,255.11175374963238C462.02564102564105,255.16088987581225,462.974358974359,255.2096611446704,463.9230769230769,255.25807469242153C464.8717948717948,255.30648824017265,465.8205128205127,255.35454406681674,466.7692307692308,255.40224913494808C467.71794871794884,255.44995420307941,468.6666666666667,255.49730851269817,469.6153846153846,255.5443188578227C470.5641025641025,255.59132920294724,471.51282051282055,255.6379955835778,472.4615384615385,255.68432463003109C473.41025641025647,255.73065367648437,474.35897435897425,255.77664538876044,475.30769230769226,255.82230623818523C476.2564102564103,255.86796708761003,477.2051282051283,255.91329707418328,478.1538461538462,255.9583025147929C479.1025641025641,256.00330795540253,480.05128205128193,256.04798885004845,480.99999999999994,256.09235136558226C481.94871794871796,256.13671388111607,482.89743589743586,256.1807580175377,483.84615384615387,256.2244897959184C484.7948717948719,256.26822157429905,485.7435897435899,256.3116409946388,486.6923076923078,256.35475393634465C487.6410256410257,256.3978668780505,488.5897435897435,256.4406733411223,489.53846153846155,256.48317906728374C490.4871794871796,256.5256847934452,491.4358974358976,256.56788978269617,492.3846153846154,256.609799642928C493.33333333333326,256.65170950315985,494.2820512820512,256.69332423437237,495.23076923076917,256.7346493143506C496.1794871794871,256.7759743943288,497.1282051282052,256.8170098230725,498.0769230769231,256.8577609518659C499.025641025641,256.89851208065926,499.97435897435895,256.93897890950194,500.92307692307696,256.9791666666667C501.871794871795,257.01935442383143,502.82051282051276,257.0592631093181,503.7692307692308,257.0988978317654C504.7179487179488,257.13853255421265,505.66666666666674,257.1778933136206,506.61538461538464,257.2169851022641C507.56410256410254,257.25607689090765,508.5128205128205,257.29489970878666,509.46153846153845,257.33345843497847C510.4102564102564,257.3720171611703,511.35897435897425,257.4103117956749,512.3076923076923,257.44834710743805C513.2564102564103,257.4863824192012,514.2051282051282,257.52415840822295,515.1538461538462,257.5616797362871C516.1025641025642,257.59920106435123,517.0512820512822,257.636467731458,518,257.67348429510594C518.9487179487178,257.71050085875385,519.8974358974359,257.74726731894293,520.8461538461539,257.7837881316737C521.7948717948719,257.8203089444045,522.7435897435897,257.85658410967693,523.6923076923076,257.89261798469386C524.6410256410255,257.9286518597108,525.5897435897435,257.9644444444722,526.5384615384615,258C527.4871794871796,258.0355555555278,528.4358974358975,258.070874081822,529.3846153846154,258.10595974626045C530.3333333333333,258.1410454106989,531.2820512820513,258.1758982132815,532.2307692307693,258.21052223020047C533.1794871794873,258.2451462471194,534.1282051282052,258.2795414783749,535.0769230769231,258.31371191135736C536.025641025641,258.34788234433984,536.974358974359,258.3818279790493,537.9230769230769,258.41555271638606C538.8717948717948,258.4492774537228,539.8205128205126,258.48278129368697,540.7692307692307,258.51606805293005C541.7179487179488,258.54935481217314,542.6666666666667,258.5824244906952,543.6153846153846,258.615280823073C544.5641025641025,258.64813715545085,545.5128205128204,258.6807801416845,546.4615384615385,258.7132134363852C547.4102564102565,258.7456467310859,548.3589743589744,258.77787033425346,549.3076923076924,258.8098878225792C550.2564102564104,258.8419053109049,551.2051282051282,258.8737166843886,552.1538461538461,258.9053254437869C553.102564102564,258.9369342031852,554.0512820512821,258.9683403484981,555,258.99954730647346C555.9487179487179,259.03075426444883,556.8974358974359,259.06176203508664,557.8461538461539,259.0925739729962C558.7948717948719,259.12338591090577,559.7435897435897,259.154002016087,560.6923076923076,259.1844255728249C561.6410256410255,259.2148491295628,562.5897435897435,259.2450801378573,563.5384615384615,259.27512181343127C564.4871794871796,259.3051634890052,565.4358974358973,259.33501583185836,566.3846153846154,259.36468199086147C567.3333333333334,259.3943481498646,568.2820512820514,259.4238281250176,569.2307692307693,259.453125C570.1794871794872,259.4824218749824,571.1282051282051,259.511535649794,572.0769230769231,259.54046934453606C573.0256410256411,259.56940303927814,573.9743589743589,259.59815665395064,574.9230769230769,259.62673314664295C575.8717948717949,259.65530963933526,576.8205128205127,259.6837090100473,577.7692307692307,259.71193415637856C578.7179487179487,259.7401593027098,579.6666666666667,259.76821022466004,580.6153846153846,259.796089760817C581.5641025641025,259.8239692969739,582.5128205128206,259.85167744733735,583.4615384615385,259.87921699291957C584.4102564102564,259.9067565385018,585.3589743589744,259.9341274793027,586.3076923076924,259.9613325401547C587.2564102564104,259.98853760100667,588.2051282051282,260.0155767819096,589.1538461538461,260.0424527528725C590.102564102564,260.06932872383544,591.051282051282,260.0960414848584,592,260.1225936524454C592.948717948718,260.1491458200324,593.8974358974359,260.17553739418315,594.8461538461538,260.2017709391784C595.7948717948717,260.22800448417365,596.7435897435897,260.2540800000133,597.6923076923077,260.28C598.6410256410257,260.30591999998666,599.5897435897436,260.3316844841205,600.5384615384615,260.35729591593787C601.4871794871794,260.38290734775524,602.4358974358975,260.40836572725584,603.3846153846154,260.43367346938777C604.3333333333333,260.4589812115197,605.2820512820512,260.4841383162829,606.2307692307692,260.5091471511819C607.1794871794872,260.53415598608086,608.1282051282052,260.5590165511158,609.0769230769231,260.5837311674623C610.025641025641,260.6084457838088,610.9743589743589,260.6330144514668,611.9230769230769,260.65743944636677C612.8717948717949,260.6818644412667,613.8205128205128,260.7061457634085,614.7692307692308,260.73028564453125C615.7179487179488,260.754425525654,616.6666666666665,260.77842396575784,617.6153846153845,260.8022831534164C618.5641025641025,260.82614234107496,619.5128205128206,260.8498622762882,620.4615384615385,260.8734451054624C621.4102564102564,260.8970279346366,622.3589743589741,260.9204736577717,623.3076923076923,260.9437843800778C624.2564102564104,260.96709510238384,625.2051282051283,260.9902708238608,626.1538461538462,261.01331360946745C627.1025641025641,261.0363563950741,628.0512820512821,261.05926624481054,629.0000000000001,261.08204518430443C629.9487179487181,261.1048241237983,630.897435897436,261.12747215304967,631.8461538461538,261.14999125925067C632.7948717948716,261.17251036545167,633.7435897435897,261.1949005486023,634.6923076923077,261.217163758331C635.6410256410257,261.2394269680598,636.5897435897434,261.2615632043667,637.5384615384615,261.28357438016525C638.4871794871797,261.3055855559638,639.4358974358975,261.32747167125416,640.3846153846154,261.3492346030616C641.3333333333333,261.370997534869,642.2820512820513,261.3926372831933,643.2307692307693,261.4141556899768C644.1794871794873,261.43567409676024,645.1282051282052,261.45707116200265,646.0769230769231,261.4783486933468C647.025641025641,261.4996262246909,647.974358974359,261.5207842221365,648.9230769230769,261.5418244597906C649.8717948717948,261.56286469744464,650.8205128205127,261.58378717530707,651.7692307692307,261.6045936346927C652.7179487179487,261.6254000940784,653.6666666666666,261.6460905349872,654.6153846153846,261.6666666666667C655.5641025641027,261.6872427983462,656.5128205128206,261.70770462079633,657.4615384615385,261.72805381190346C658.4102564102564,261.7484030030106,659.3589743589744,261.7686395627745,660.3076923076923,261.7887651384083C661.2564102564102,261.80889071404204,662.2051282051281,261.82890530554573,663.1538461538462,261.84881053012924C664.1025641025643,261.86871575471275,665.0512820512819,261.88851161237613,665.9999999999999,261.90819969097987C666.9487179487179,261.9278877695836,667.8974358974359,261.94746806912775,668.8461538461538,261.9669421487603C669.7948717948717,261.9864162283929,670.7435897435896,262.0057840881138,671.6923076923077,262.02504725897916C672.6410256410259,262.04431042984453,673.5897435897436,262.0634689118544,674.5384615384615,262.0825242085782C675.4871794871794,262.101579505302,676.4358974358976,262.12053161673975,677.3846153846155,262.1393820195642C678.3333333333334,262.15823242238866,679.2820512820513,262.1769811165999,680.2307692307692,262.1956295525494C681.1794871794871,262.2142779884989,682.1282051282053,262.2328261661868,683.0769230769231,262.2512755102041C684.0256410256409,262.2697248542214,684.9743589743588,262.2880753645682,685.9230769230769,262.30632844062256C686.871794871795,262.3245815166769,687.820512820513,262.34273715843875,688.7692307692308,262.3607967406066C689.7179487179486,262.3788563227744,690.6666666666667,262.3968198453481,691.6153846153846,262.414688658867C692.5641025641025,262.43255747238595,693.5128205128204,262.4503315768501,694.4615384615385,262.468012299147C695.4102564102565,262.4856930214439,696.3589743589744,262.5032803615736,697.3076923076923,262.5207756232687C698.2564102564102,262.5382708849638,699.2051282051282,262.5556740682243,700.1538461538462,262.5729864541053C701.1025641025642,262.59029883998636,702.051282051282,262.60752042848804,703,262.624652478481C703.948717948718,262.6417845284739,704.8974358974361,262.6588270399579,705.8461538461539,262.67578125C706.7948717948717,262.6927354600421,707.7435897435897,262.70960136864215,708.6923076923076,262.726380191808C709.6410256410255,262.74315901497386,710.5897435897435,262.7598507527055,711.5384615384615,262.7764565992866C712.4871794871796,262.79306244586763,713.4358974358975,262.8095824012981,714.3846153846154,262.82601764268253C715.3333333333333,262.842452884067,716.282051282051,262.8588034114052,717.2307692307693,262.8750703696753C718.1794871794875,262.89133732794545,719.1282051282054,262.90752071714746,720.0769230769231,262.92362170788243C721.0256410256408,262.9397226986174,721.9743589743588,262.9557412908854,722.9230769230769,262.97167846730525C723.871794871795,262.9876156437251,724.8205128205127,263.00347140429665,725.7692307692307,263.0192473427176C726.7179487179487,263.0350232811386,727.6666666666666,263.05071939740867,728.6153846153846,263.06633491599706C729.5641025641027,263.08195043458545,730.5128205128203,263.097485355492,731.4615384615385,263.1129476584022C732.4102564102566,263.12840996131246,733.3589743589745,263.1437996462261,734.3076923076924,263.1590919327958C735.2564102564103,263.17438421936544,736.2051282051282,263.18957910759104,737.1538461538461,263.2047739958166" stroke="#d01010" fill="none"/><text font-family="sans-serif" font-size="10" class="labels" x="737.1538461538461" y="263.2047739958166" dx="5" dy="4" text-anchor="start"/></g></g></g><text y="4" x="4" style="font-family: Arial, sans-serif; font-size: 12px; fill: black; font-weight: bold; dominant-baseline: hanging;"/></g><g id="grid"><rect x="0" y="0" width="805" height="300" fill="none" stroke="#ccc"/></g></g></svg>